<svg width="132" height="30" fill="none" xmlns="http://www.w3.org/2000/svg"><path d="M18.702 28.806l-5.814-8.614c-.702.07-1.27.07-1.704.07h-6.65v8.544H.69V.697h10.492c3.476 0 6.25.872 8.22 2.616 2.006 1.744 3.008 4.15 3.008 7.184 0 2.162-.501 4.01-1.537 5.545-1.036 1.535-2.473 2.65-4.377 3.348l6.382 9.451h-4.177v-.035zm-7.619-11.962c2.44 0 4.31-.558 5.58-1.639 1.27-1.081 1.939-2.65 1.939-4.708 0-2.023-.635-3.592-1.938-4.673-1.27-1.081-3.141-1.64-5.58-1.64h-6.55v12.66h6.55z" fill="#4486F3" stroke="#4486F3" stroke-width=".432" stroke-miterlimit="10"/><path d="M45.2 8.729v20.079h-3.508v-3.029c-.735 1.02-1.738 1.844-2.974 2.436-1.203.56-2.54.823-3.977.823-2.706 0-4.845-.724-6.416-2.205-1.57-1.481-2.339-3.687-2.339-6.55V8.728h3.71v11.158c0 1.942.467 3.424 1.436 4.444.936.988 2.306 1.481 4.077 1.481 1.938 0 3.475-.592 4.611-1.744 1.137-1.152 1.705-2.798 1.705-4.938V8.73H45.2z" fill="#EA4A34" stroke="#EA4A34" stroke-width=".432" stroke-miterlimit="10"/><path d="M60.482 8.531c2.606 0 4.645.757 6.148 2.239 1.538 1.48 2.306 3.62 2.306 6.484v11.554h-3.71V17.682c0-1.942-.467-3.423-1.436-4.41-.936-.988-2.306-1.482-4.077-1.482-2.005 0-3.575.593-4.745 1.745-1.17 1.152-1.737 2.765-1.737 4.937v10.336h-3.71V8.728h3.543v3.03c.735-1.021 1.737-1.844 3.007-2.404a12.07 12.07 0 014.41-.823z" fill="#EFC241" stroke="#EFC241" stroke-width=".432" stroke-miterlimit="10"/><path d="M92.429 18.9c0 .264-.034.659-.067 1.087H75.82c.234 1.777 1.002 3.192 2.34 4.279 1.37 1.053 3.04 1.58 5.045 1.58 2.44 0 4.41-.823 5.881-2.436l2.038 2.337a9.047 9.047 0 01-3.475 2.436c-1.37.56-2.874.823-4.578.823-2.138 0-4.076-.428-5.747-1.284-1.671-.889-2.974-2.107-3.877-3.687-.902-1.58-1.336-3.324-1.336-5.3 0-1.941.434-3.686 1.303-5.266a9.638 9.638 0 013.642-3.654c1.57-.889 3.308-1.316 5.28-1.316 1.938 0 3.676.427 5.18 1.316a8.83 8.83 0 013.575 3.654c.902 1.613 1.337 3.39 1.337 5.431zm-10.092-7.307c-1.771 0-3.241.526-4.478 1.58-1.17 1.053-1.87 2.436-2.071 4.18h13.099c-.2-1.679-.903-3.061-2.106-4.147-1.203-1.054-2.673-1.613-4.444-1.613z" fill="#4486F3" stroke="#4486F3" stroke-width=".432" stroke-miterlimit="10"/><path d="M95.636.697h3.71v28.111h-3.71V.698zm7.439.001h3.676v28.11h-3.676V.699z" fill="#56AD5B" stroke="#56AD5B" stroke-width=".432" stroke-miterlimit="10"/><path d="M120.597 7.674c5.916 0 10.712 4.841 10.712 10.814 0 5.972-4.796 10.814-10.712 10.814-5.916 0-10.712-4.842-10.712-10.814 0-5.973 4.796-10.814 10.712-10.814zm4.758 6.488c-.408.008-1.035.224-4.048 1.473a524.117 524.117 0 00-6.328 2.717c-.514.204-.782.403-.806.598-.047.374.493.49 1.172.71.554.18 1.299.39 1.687.398.351.008.743-.137 1.176-.433 2.957-1.99 4.481-2.994 4.577-3.016.068-.015.161-.034.225.022.063.056.057.162.05.191-.054.229-2.83 2.745-2.989 2.91l-.077.078c-.589.588-1.184.971-.158 1.645.928.609 1.468.997 2.421 1.622.611.398 1.09.87 1.719.813.291-.027.59-.298.743-1.11.359-1.913 1.066-6.064 1.228-7.774a1.89 1.89 0 00-.018-.425.454.454 0 00-.154-.292c-.13-.106-.331-.128-.42-.127z" fill="#EB4833"/></svg>