<svg><defs><symbol id="icon-arrowDown" viewBox="0 0 8 6" fill="none" xmlns="http://www.w3.org/2000/svg"><path d="M7 1.5l-3 3-3-3" stroke-width="2" stroke-linecap="round" stroke-linejoin="round"/></symbol><symbol id="icon-arrowDownUp" viewBox="0 0 12 14" fill="none" xmlns="http://www.w3.org/2000/svg"><path fill-rule="evenodd" clip-rule="evenodd" d="M.646 10.646a.5.5 0 01.708 0L3 12.293l1.646-1.647a.5.5 0 01.708.708l-2 2a.5.5 0 01-.708 0l-2-2a.5.5 0 010-.708z"/><path fill-rule="evenodd" clip-rule="evenodd" d="M3 .5a.5.5 0 01.5.5v12a.5.5 0 01-1 0V1A.5.5 0 013 .5zm5.646.146a.5.5 0 01.708 0l2 2a.5.5 0 01-.708.708L9 1.707 7.354 3.354a.5.5 0 11-.708-.708l2-2z"/><path fill-rule="evenodd" clip-rule="evenodd" d="M9 .5a.5.5 0 01.5.5v12a.5.5 0 01-1 0V1A.5.5 0 019 .5z"/></symbol><symbol id="icon-checkbox" viewBox="0 0 13 10" fill="none" xmlns="http://www.w3.org/2000/svg"><path d="M1 5l4.23 4L12 1" stroke-width="2" stroke-linecap="round" stroke-linejoin="round"/></symbol><symbol id="icon-completeOrders" viewBox="0 0 20 20" xmlns="http://www.w3.org/2000/svg"><path d="M15.834 1.667H4.167a.833.833 0 00-.833.833v15c0 .46.373.833.833.833h11.666c.46 0 .834-.373.834-.833v-15a.833.833 0 00-.834-.833z" stroke-width="1.667" stroke-linecap="round" stroke-linejoin="round"/><path d="M7.083 12.5h5.834M7.083 15H10m2.5-9.583L9.167 8.75 7.5 7.083" stroke="#fff" stroke-width="1.667" stroke-linecap="round" stroke-linejoin="round"/></symbol><symbol id="icon-createVacancy" viewBox="0 0 20 20" xmlns="http://www.w3.org/2000/svg"><path d="M8.333 2.5H2.5v4.583h5.833V2.5zM17.5 12.916h-5.834V17.5H17.5v-4.584zm0-10.416h-5.834v7.083H17.5V2.5zm-9.167 7.916H2.5V17.5h5.833v-7.084z" stroke-width="1.667" stroke-linejoin="round"/></symbol><symbol id="icon-descriptionVacancy" viewBox="0 0 26 26" xmlns="http://www.w3.org/2000/svg"><rect x="1.75" y="1.75" width="22.5" height="22.5" rx="1.875" stroke-width="2.5" stroke-linejoin="round"/><path d="M19.25 10.5H6.75m7.5 4.375h-7.5" stroke="#fff" stroke-width="2.5" stroke-linecap="round" stroke-linejoin="round"/></symbol><symbol id="icon-payVacancy" viewBox="0 0 30 30" xmlns="http://www.w3.org/2000/svg"><path d="M2.5 6.25C2.5 5.56 3.06 5 3.75 5h22.5c.69 0 1.25.56 1.25 1.25v17.5c0 .69-.56 1.25-1.25 1.25H3.75c-.69 0-1.25-.56-1.25-1.25V6.25z" stroke-width="2.5" stroke-linejoin="round"/><path d="M2.5 10h25" stroke="#fff" stroke-width="2.5" stroke-linecap="square" stroke-linejoin="round"/><path d="M16.875 20H22.5" stroke="#fff" stroke-width="2.5" stroke-linecap="round" stroke-linejoin="round"/><path d="M27.5 6.25v10m-25-10v10" stroke-width="2.5" stroke-linecap="round" stroke-linejoin="round"/></symbol><symbol id="icon-telegram" viewBox="0 0 24 24" xmlns="http://www.w3.org/2000/svg"><path d="M12 24c6.629 0 12-5.371 12-12S18.629 0 12 0 0 5.371 0 12s5.371 12 12 12zM5.491 11.74l11.57-4.461c.537-.194 1.006.131.832.943l.001-.001-1.97 9.281c-.146.658-.537.818-1.084.508l-3-2.211-1.447 1.394c-.16.16-.295.295-.605.295l.213-3.053 5.56-5.023c.242-.213-.054-.333-.373-.121l-6.871 4.326-2.962-.924c-.643-.204-.657-.643.136-.953z"/></symbol><symbol id="icon-trashcan" viewBox="0 0 20 22" xmlns="http://www.w3.org/2000/svg"><path d="M5.5 5l.6-3.5h7.8l.6 3.5" fill="#fff" stroke="#9F9F9F" stroke-width="2" stroke-linejoin="round"/><path d="M1 5h18" stroke="#9F9F9F" stroke-width="2" stroke-linecap="round"/><path fill-rule="evenodd" clip-rule="evenodd" d="M16.5 5l-1 15.5h-11L3.5 5h13z" fill="#9F9F9F" stroke="#9F9F9F" stroke-width="2" stroke-linecap="round" stroke-linejoin="round"/><path d="M7.5 16.5h5" stroke="#fff" stroke-width="2" stroke-linecap="round"/></symbol><symbol id="icon-wallet" viewBox="0 0 24 25" fill="none" xmlns="http://www.w3.org/2000/svg"><g opacity=".7" stroke-width="2.933"><path fill-rule="evenodd" clip-rule="evenodd" d="M8.99 6.984L15.893 3l2.306 3.994-9.207-.01z" stroke="#F57B51" stroke-linecap="round" stroke-linejoin="round"/><path d="M2 8.467C2 7.657 2.657 7 3.467 7h17.066C21.343 7 22 7.657 22 8.467v13.066c0 .81-.657 1.467-1.467 1.467H3.467C2.657 23 2 22.343 2 21.533V8.467z" fill="#F57B51" stroke="#F57B51" stroke-linejoin="round"/><path d="M17.625 17.5H22v-5h-4.375C16.175 12.5 15 13.62 15 15s1.175 2.5 2.625 2.5z" fill="#F57B51" stroke="#fff" stroke-linejoin="round"/><path d="M22 9.25v12" stroke="#F57B51" stroke-linecap="round"/></g></symbol><symbol id="icon-search" viewBox="0 0 22 22" fill="none" xmlns="http://www.w3.org/2000/svg"><path d="M21.554 19.405l-4.65-4.65a9.26 9.26 0 001.752-5.428 9.26 9.26 0 00-2.733-6.594A9.265 9.265 0 009.328 0a9.26 9.26 0 00-6.596 2.733A9.264 9.264 0 00.001 9.327a9.27 9.27 0 002.731 6.596 9.267 9.267 0 006.596 2.733 9.241 9.241 0 005.426-1.75l4.65 4.65a1.516 1.516 0 002.15 0 1.52 1.52 0 000-2.151zm-16.67-5.633a6.246 6.246 0 01-1.841-4.445c0-1.679.653-3.256 1.84-4.444A6.24 6.24 0 019.329 3.04a6.24 6.24 0 014.444 1.842 6.245 6.245 0 011.842 4.444 6.245 6.245 0 01-1.842 4.446 6.241 6.241 0 01-4.444 1.84 6.239 6.239 0 01-4.444-1.84z" fill="#F57B51"/></symbol><symbol id="icon-close" viewBox="0 0 21 22" fill="none" xmlns="http://www.w3.org/2000/svg"><path d="M12.41 11l8.29-8.29a1 1 0 00-1.41-1.41L11 9.59l-8.29-8.3a1.004 1.004 0 10-1.42 1.42L9.59 11l-8.3 8.29A1 1 0 102.7 20.7l8.3-8.29 8.29 8.29a1 1 0 001.41-1.41L12.41 11z" fill="#9F9F9F"/></symbol></defs></svg>