<?xml version="1.0" encoding="utf-8"?><svg xmlns="http://www.w3.org/2000/svg" xmlns:xlink="http://www.w3.org/1999/xlink"><symbol fill="currentColor" viewBox="0 0 12 14" id="ArrowsDownUp" xmlns="http://www.w3.org/2000/svg"><path fill-rule="evenodd" clip-rule="evenodd" d="M.646 10.646a.5.5 0 01.708 0L3 12.293l1.646-1.647a.5.5 0 01.708.708l-2 2a.5.5 0 01-.708 0l-2-2a.5.5 0 010-.708z" stroke="transparent"/><path fill-rule="evenodd" clip-rule="evenodd" d="M3 .5a.5.5 0 01.5.5v12a.5.5 0 01-1 0V1A.5.5 0 013 .5zM8.646.646a.5.5 0 01.708 0l2 2a.5.5 0 01-.708.708L9 1.707 7.354 3.354a.5.5 0 11-.708-.708l2-2z" stroke="transparent"/><path fill-rule="evenodd" clip-rule="evenodd" d="M9 .5a.5.5 0 01.5.5v12a.5.5 0 01-1 0V1A.5.5 0 019 .5z" stroke="transparent"/></symbol><symbol fill="currentColor" viewBox="0 0 8 6" id="arrow_down" xmlns="http://www.w3.org/2000/svg"><path d="M7 1.5l-3 3-3-3" stroke="currentColor" stroke-width="2" stroke-linecap="round" stroke-linejoin="round" fill="transparent"/></symbol><symbol fill="currentColor" viewBox="0 0 13 10" id="checkbox" xmlns="http://www.w3.org/2000/svg"><path d="M1 5l4.23 4L12 1" stroke="currentColor" stroke-width="2" stroke-linecap="round" stroke-linejoin="round" fill="transparent"/></symbol><symbol fill="currentColor" viewBox="0 0 20 20" id="completeOrders" xmlns="http://www.w3.org/2000/svg"><path d="M15.834 1.667H4.167a.833.833 0 00-.833.833v15c0 .46.373.833.833.833h11.666c.46 0 .834-.373.834-.833v-15a.833.833 0 00-.834-.833z" stroke="currentColor" stroke-width="1.667" stroke-linecap="round" stroke-linejoin="round"/><path d="M7.083 12.5h5.834M7.083 15H10M12.5 5.417L9.167 8.75 7.5 7.083" stroke="currentColor" stroke-width="1.667" stroke-linecap="round" stroke-linejoin="round" fill="transparent"/></symbol><symbol fill="currentColor" viewBox="0 0 20 20" id="createVacancy" xmlns="http://www.w3.org/2000/svg"><path d="M8.333 2.5H2.5v4.583h5.833V2.5zM17.5 12.916h-5.834V17.5H17.5v-4.584zM17.5 2.5h-5.834v7.083H17.5V2.5zM8.333 10.416H2.5V17.5h5.833v-7.084z" stroke="currentColor" stroke-width="1.667" stroke-linejoin="round"/></symbol><symbol fill="currentColor" viewBox="0 0 26 26" id="descriptionVacancy" xmlns="http://www.w3.org/2000/svg"><rect x="1.75" y="1.75" width="22.5" height="22.5" rx="1.875" stroke="currentColor" stroke-width="2.5" stroke-linejoin="round"/><path d="M19.25 10.5H6.75M14.25 14.875h-7.5" stroke="currentColor" stroke-width="2.5" stroke-linecap="round" stroke-linejoin="round" fill="transparent"/></symbol><symbol fill="currentColor" viewBox="0 0 30 30" id="payVacancy" xmlns="http://www.w3.org/2000/svg"><path d="M2.5 6.25C2.5 5.56 3.06 5 3.75 5h22.5c.69 0 1.25.56 1.25 1.25v17.5c0 .69-.56 1.25-1.25 1.25H3.75c-.69 0-1.25-.56-1.25-1.25V6.25z" stroke="currentColor" stroke-width="2.5" stroke-linejoin="round"/><path d="M2.5 10h25" stroke="currentColor" stroke-width="2.5" stroke-linecap="square" stroke-linejoin="round" fill="transparent"/><path d="M16.875 20H22.5M27.5 6.25v10M2.5 6.25v10" stroke="currentColor" stroke-width="2.5" stroke-linecap="round" stroke-linejoin="round" fill="transparent"/></symbol><symbol fill="currentColor" viewBox="0 0 22 22" id="telegram" xmlns="http://www.w3.org/2000/svg"><path d="M10.994 1.833a9.167 9.167 0 100 18.334 9.167 9.167 0 000-18.334zm2.915 13.89a.645.645 0 01-.918.322l-2.489-1.934-1.597 1.474a.275.275 0 01-.261.036l.306-2.74.01.008.006-.054s4.478-4.077 4.66-4.25c.185-.174.124-.211.124-.211.01-.21-.331 0-.331 0L7.485 12.19l-2.47-.842s-.38-.135-.415-.435c-.038-.297.427-.458.427-.458l9.824-3.903s.807-.36.807.236l-1.749 8.934z" stroke="transparent"/></symbol><symbol fill="currentColor" viewBox="0 0 20 22" id="trashcan" xmlns="http://www.w3.org/2000/svg"><path d="M5.5 5l.6-3.5h7.8l.6 3.5" stroke="currentColor" stroke-width="2" stroke-linejoin="round" fill="transparent"/><path d="M1 5h18" stroke="currentColor" stroke-width="2" stroke-linecap="round" fill="transparent"/><path fill-rule="evenodd" clip-rule="evenodd" d="M16.5 5l-1 15.5h-11L3.5 5h13z" stroke="currentColor" stroke-width="2" stroke-linecap="round" stroke-linejoin="round"/><path d="M7.5 16.5h5" stroke="currentColor" stroke-width="2" stroke-linecap="round" fill="transparent"/></symbol><symbol fill="currentColor" viewBox="0 0 24 25" id="wallet" xmlns="http://www.w3.org/2000/svg"><g opacity=".7" stroke="currentColor" stroke-width="2.933"><path fill-rule="evenodd" clip-rule="evenodd" d="M8.99 6.984L15.893 3l2.306 3.994-9.207-.01z" stroke-linecap="round" stroke-linejoin="round" fill="transparent"/><path d="M2 8.467C2 7.657 2.657 7 3.467 7h17.066C21.343 7 22 7.657 22 8.467v13.066c0 .81-.657 1.467-1.467 1.467H3.467C2.657 23 2 22.343 2 21.533V8.467z" stroke-linejoin="round"/><path d="M17.625 17.5H22v-5h-4.375C16.175 12.5 15 13.62 15 15s1.175 2.5 2.625 2.5z" stroke-linejoin="round"/><path d="M22 9.25v12" stroke-linecap="round" fill="transparent"/></g></symbol></svg>