<svg width="132" height="30" viewBox="0 0 132 30" fill="none" xmlns="http://www.w3.org/2000/svg">
<path d="M18.7021 28.8062L12.8877 20.1922C12.186 20.2619 11.6179 20.2619 11.1835 20.2619H4.53374V28.8062H0.690918V0.697266H11.1835C14.6588 0.697266 17.4323 1.56913 19.4038 3.31286C21.4088 5.05659 22.4112 7.46294 22.4112 10.497C22.4112 12.6593 21.91 14.5076 20.8741 16.0421C19.8382 17.5766 18.4013 18.6926 16.4966 19.39L22.8791 28.8411H18.7021V28.8062ZM11.0833 16.8442C13.5226 16.8442 15.3939 16.2862 16.6637 15.2051C17.9335 14.124 18.6018 12.5546 18.6018 10.497C18.6018 8.4743 17.9669 6.90494 16.6637 5.82383C15.3939 4.74272 13.5226 4.18473 11.0833 4.18473H4.53374V16.8442H11.0833Z" fill="#4486F3" stroke="#4486F3" stroke-width="0.431937" stroke-miterlimit="10"/>
<path d="M45.2005 8.72852V28.8077H41.6918V25.7794C40.9566 26.7998 39.9542 27.6227 38.7178 28.2152C37.5148 28.7748 36.1782 29.0382 34.7413 29.0382C32.0346 29.0382 29.896 28.314 28.3254 26.8327C26.7549 25.3515 25.9863 23.1461 25.9863 20.2823V8.72852H29.6955V19.8873C29.6955 21.8294 30.1633 23.3106 31.1324 24.3311C32.068 25.3186 33.4381 25.8123 35.2091 25.8123C37.1472 25.8123 38.6844 25.2198 39.8205 24.0677C40.9566 22.9156 41.5247 21.2698 41.5247 19.1302V8.72852H45.2005Z" fill="#EA4A34" stroke="#EA4A34" stroke-width="0.431937" stroke-miterlimit="10"/>
<path d="M60.4819 8.53125C63.0883 8.53125 65.1267 9.28833 66.6304 10.7696C68.1675 12.2508 68.9361 14.3904 68.9361 17.2542V28.808H65.2269V17.6821C65.2269 15.74 64.7591 14.2588 63.7901 13.2713C62.8544 12.2838 61.4844 11.79 59.7133 11.79C57.7084 11.79 56.1378 12.3825 54.9683 13.5346C53.7987 14.6867 53.2306 16.2996 53.2306 18.4721V28.808H49.5215V8.72875H53.0636V11.7571C53.7987 10.7367 54.8012 9.91375 56.071 9.35417C57.441 8.8275 58.8779 8.53125 60.4819 8.53125Z" fill="#EFC241" stroke="#EFC241" stroke-width="0.431937" stroke-miterlimit="10"/>
<path d="M92.4287 18.9002C92.4287 19.1636 92.3953 19.5586 92.3619 19.9865H75.821C76.0549 21.764 76.8235 23.1794 78.1601 24.2657C79.5301 25.319 81.2009 25.8457 83.2059 25.8457C85.6453 25.8457 87.6168 25.0227 89.0871 23.4098L91.1255 25.7469C90.1898 26.8002 89.0537 27.6232 87.6502 28.1828C86.2802 28.7423 84.7764 29.0057 83.0722 29.0057C80.9336 29.0057 78.9955 28.5778 77.3247 27.7219C75.6539 26.8332 74.3507 25.6152 73.4485 24.0352C72.5462 22.4552 72.1118 20.7106 72.1118 18.7356C72.1118 16.7936 72.5462 15.049 73.415 13.469C74.3173 11.889 75.5202 10.704 77.0574 9.81521C78.6279 8.92645 80.3655 8.49854 82.3371 8.49854C84.2752 8.49854 86.0128 8.92645 87.5165 9.81521C89.0537 10.671 90.2567 11.889 91.0921 13.469C91.9943 15.0819 92.4287 16.8594 92.4287 18.9002ZM82.3371 11.5927C80.566 11.5927 79.0957 12.1194 77.8594 13.1727C76.6898 14.226 75.9881 15.6086 75.7876 17.3531H88.8866C88.6861 15.6744 87.9844 14.2919 86.7814 13.2056C85.5784 12.1523 84.1081 11.5927 82.3371 11.5927Z" fill="#4486F3" stroke="#4486F3" stroke-width="0.431937" stroke-miterlimit="10"/>
<path d="M95.6362 0.697266H99.3454V28.8082H95.6362V0.697266Z" fill="#56AD5B" stroke="#56AD5B" stroke-width="0.431937" stroke-miterlimit="10"/>
<path d="M103.075 0.697754H106.751V28.8086H103.075V0.697754Z" fill="#56AD5B" stroke="#56AD5B" stroke-width="0.431937" stroke-miterlimit="10"/>
<path d="M120.597 7.67383C126.513 7.67383 131.309 12.5152 131.309 18.4878C131.309 24.4603 126.513 29.3017 120.597 29.3017C114.681 29.3017 109.885 24.4603 109.885 18.4878C109.885 12.5152 114.681 7.67383 120.597 7.67383ZM125.355 14.1622C124.947 14.1698 124.32 14.386 121.307 15.6351C119.192 16.5265 117.083 17.432 114.979 18.3515C114.465 18.5559 114.197 18.7549 114.173 18.9495C114.126 19.3237 114.666 19.4394 115.345 19.66C115.899 19.8395 116.644 20.0493 117.032 20.058C117.383 20.0655 117.775 19.9206 118.208 19.6254C121.165 17.6356 122.689 16.631 122.785 16.6094C122.853 16.5943 122.946 16.5748 123.01 16.631C123.073 16.6873 123.067 16.7932 123.06 16.8224C123.006 17.0506 120.23 19.567 120.071 19.7325L119.994 19.8103C119.405 20.3975 118.81 20.7814 119.836 21.4551C120.764 22.064 121.304 22.4522 122.257 23.0772C122.868 23.4752 123.347 23.9477 123.976 23.8904C124.267 23.8634 124.566 23.592 124.719 22.7809C125.078 20.8669 125.785 16.7165 125.947 15.0057C125.957 14.8638 125.951 14.7212 125.929 14.5807C125.916 14.4673 125.861 14.363 125.775 14.2887C125.645 14.1827 125.444 14.1611 125.355 14.1622Z" fill="#EB4833"/>
</svg>
