<svg width="22" height="22" viewBox="0 0 22 22" fill="none" xmlns="http://www.w3.org/2000/svg">
<path d="M10.9943 1.8335C9.18131 1.8335 7.40903 2.37111 5.90158 3.37836C4.39413 4.3856 3.21922 5.81724 2.52541 7.49223C1.83161 9.16722 1.65008 11.0103 2.00378 12.7885C2.35747 14.5667 3.23051 16.2 4.5125 17.482C5.79448 18.764 7.42782 19.637 9.20598 19.9907C10.9841 20.3444 12.8272 20.1629 14.5022 19.4691C16.1772 18.7753 17.6089 17.6003 18.6161 16.0929C19.6234 14.5854 20.161 12.8132 20.161 11.0002C20.161 9.79638 19.9239 8.60438 19.4632 7.49223C19.0025 6.38008 18.3273 5.36955 17.4761 4.51835C16.6249 3.66715 15.6144 2.99194 14.5022 2.53127C13.3901 2.0706 12.1981 1.8335 10.9943 1.8335ZM13.9093 15.7228C13.8751 15.8085 13.823 15.8858 13.7564 15.9496C13.6898 16.0134 13.6104 16.0623 13.5234 16.0928C13.4364 16.1234 13.3438 16.135 13.252 16.1268C13.1601 16.1187 13.0711 16.0909 12.9908 16.0455L10.5021 14.1113L8.90522 15.5853C8.86816 15.6127 8.82481 15.6303 8.77916 15.6366C8.73351 15.6428 8.68703 15.6375 8.64397 15.6211L8.95014 12.8812L8.95931 12.8894L8.96572 12.8353C8.96572 12.8353 13.4436 8.758 13.6261 8.58475C13.8112 8.4115 13.7498 8.37391 13.7498 8.37391C13.7608 8.16308 13.4189 8.37391 13.4189 8.37391L7.48531 12.1909L5.01489 11.3494C5.01489 11.3494 4.63539 11.2137 4.59964 10.914C4.56206 10.617 5.02681 10.4557 5.02681 10.4557L14.8507 6.5525C14.8507 6.5525 15.6583 6.19316 15.6583 6.789L13.9093 15.7228Z" fill="#C7C7C7"/>
</svg>
